HIERARCHY
ROOT RightUpLeg
{
	OFFSET -0.763382 0.000000 -0.109374
	CHANNELS 6 Xposition Yposition Zposition Xrotation Yrotation Zrotation
	JOINT RightUpArm
	{
		OFFSET -3.066313 0.000000 0.000000
		CHANNELS 3 Xrotation Yrotation Zrotation
		JOINT LeftHand
		{
			OFFSET -2.741983 0.004818 -0.000002
			CHANNELS 3 Xrotation Yrotation Zrotation
			JOINT L Finger1
			{
				OFFSET -0.685491 0.207190 0.077791
				CHANNELS 3 Xrotation Yrotation Zrotation
				JOINT L Finger11
				{
					OFFSET -0.348201 -0.006811 0.000000
					CHANNELS 3 Xrotation Yrotation Zrotation
					JOINT L Finger12
					{
						OFFSET -0.214172 -0.008316 -0.006234
						CHANNELS 3 Xrotation Yrotation Zrotation
						End Site
						{
							OFFSET -0.214424 -0.000000 0.000000
						}
					}
				}
			}
			JOINT L Finger4
			{
				OFFSET -0.639618 -0.307522 0.077791
				CHANNELS 3 Xrotation Yrotation Zrotation
				JOINT L Finger41
				{
					OFFSET -0.329153 0.000000 0.000000
					CHANNELS 3 Xrotation Yrotation Zrotation
					JOINT L Finger42
					{
						OFFSET -0.189706 0.000000 0.000000
						CHANNELS 3 Xrotation Yrotation Zrotation
						End Site
						{
							OFFSET -0.189706 -0.000000 0.000000
						}
					}
				}
			}
			JOINT L Finger2
			{
				OFFSET -0.694829 0.021576 0.077791
				CHANNELS 3 Xrotation Yrotation Zrotation
				JOINT L Finger21
				{
					OFFSET -0.387926 0.000000 0.000000
					CHANNELS 3 Xrotation Yrotation Zrotation
					JOINT L Finger22
					{
						OFFSET -0.239319 -0.000000 0.000000
						CHANNELS 3 Xrotation Yrotation Zrotation
						End Site
						{
							OFFSET -0.239320 -0.000000 0.000000
						}
					}
				}
			}
			JOINT L Finger3
			{
				OFFSET -0.686913 -0.143223 0.077791
				CHANNELS 3 Xrotation Yrotation Zrotation
				JOINT L Finger31
				{
					OFFSET -0.359850 -0.000000 0.000000
					CHANNELS 3 Xrotation Yrotation Zrotation
					JOINT L Finger32
					{
						OFFSET -0.207670 0.000000 0.000000
						CHANNELS 3 Xrotation Yrotation Zrotation
						End Site
						{
							OFFSET -0.207669 -0.000000 0.000000
						}
					}
				}
			}
			JOINT L Finger0
			{
				OFFSET -0.036888 0.168260 -0.105492
				CHANNELS 3 Xrotation Yrotation Zrotation
				JOINT L Finger01
				{
					OFFSET -0.370306 0.318978 -0.021741
					CHANNELS 3 Xrotation Yrotation Zrotation
					JOINT L Finger02
					{
						OFFSET -0.236204 0.186036 -0.010224
						CHANNELS 3 Xrotation Yrotation Zrotation
						End Site
						{
							OFFSET -0.300842 -0.000000 0.000000
						}
					}
				}
			}
		}
	}
}
MOTION
Frames: 16
Frame Time: 0.033333
-0.763382 0.000000 -0.109374 -0.000000 0.000000 -0.000000 -0.000000 0.000000 -0.000000 -0.000000 0.000000 -0.000000 -0.000000 0.000000 -0.000000 -0.000000 0.000000 -0.000000 -0.000000 0.000000 -0.000000 -0.000000 0.000000 -0.000000 -0.000000 0.000000 -0.000000 -0.000000 0.000000 -0.000000 -0.000000 0.000000 -0.000000 -0.000000 0.000000 -0.000000 -0.000000 0.000000 -0.000000 -0.000000 0.000000 -0.000000 -0.000000 0.000000 -0.000000 -0.000000 0.000000 -0.000000 -0.000000 0.000000 -0.000000 -0.000000 0.000000 -0.000000 -0.000000 0.000000 -0.000000 
-0.763382 0.000000 -0.109374 -7.635101 -37.867327 -33.457883 10.067066 14.965940 -92.204589 16.293205 5.600463 -4.711501 0.826997 -9.313734 -0.248044 -0.000000 -0.000000 -0.000001 -0.000000 -0.000000 -0.000001 -0.000001 -0.000000 0.000001 0.000001 -0.000002 -0.000002 -0.000000 0.000000 -0.000001 -0.000001 -0.000000 0.000000 0.000000 -0.000000 0.000001 -0.000001 0.000000 -0.000001 -0.000001 -0.000000 0.000001 -0.000004 0.000001 0.000003 -0.000001 0.000001 0.000000 -0.000001 -0.000000 -0.000000 -0.000001 -0.000000 -0.000000 -0.000001 -0.000000 0.000001 
-0.763382 0.000000 -0.109374 -13.038991 -44.783611 -44.135521 13.738842 14.568688 -110.739414 18.682410 8.455008 -6.386122 0.478605 -11.039970 -0.806002 0.000001 -0.000003 -0.000002 0.000000 -0.000003 -0.000002 0.000001 0.000000 -0.000002 0.000001 0.000002 -0.000004 0.000001 0.000000 -0.000002 0.000001 0.000000 -0.000001 0.000001 -0.000001 0.000001 0.000001 -0.000001 0.000001 0.000001 0.000000 -0.000001 0.000001 0.000000 -0.000001 0.000002 0.000000 -0.000001 0.000001 0.000000 -0.000001 0.000001 0.000000 -0.000001 0.000001 0.000000 -0.000001 
-0.763382 0.000000 -0.109374 -12.477610 -44.540896 -43.448913 13.070545 14.582010 -107.689195 17.274238 10.046964 -6.655432 0.580350 -10.572638 -0.889678 -0.000000 0.000002 -0.000001 -0.000000 0.000002 -0.000001 -0.000000 0.000001 0.000002 0.000001 0.000001 0.000000 0.000001 0.000001 0.000000 -0.000000 0.000001 0.000002 -0.000000 0.000001 0.000003 -0.000001 0.000002 0.000003 -0.000000 0.000001 0.000002 -0.000000 0.000001 -0.000001 0.000001 0.000001 0.000001 -0.000000 0.000001 0.000002 -0.000000 0.000001 0.000002 -0.000000 0.000001 0.000001 
-0.763382 0.000000 -0.109374 -13.282555 -45.201686 -43.662158 12.832582 14.935477 -106.171350 16.818422 10.696824 -6.889048 1.322806 -10.443013 -0.484745 -0.000001 0.000001 0.000001 -0.000002 0.000001 0.000001 -0.000001 -0.000004 0.000002 0.000001 -0.000004 0.000000 -0.000000 -0.000002 0.000001 -0.000001 -0.000004 0.000002 -0.000000 -0.000004 0.000001 -0.000000 -0.000002 0.000003 -0.000001 -0.000004 0.000004 -0.000000 -0.000002 -0.000001 -0.000000 -0.000004 0.000001 -0.000001 -0.000004 0.000002 -0.000001 -0.000004 0.000002 -0.000001 -0.000004 0.000001 
-0.763382 0.000000 -0.109374 -13.489600 -45.362059 -43.798650 12.157847 14.746816 -106.682179 16.402740 10.513500 -7.093247 1.499235 -10.326601 -0.400989 0.000001 -0.000002 0.000001 0.000000 -0.000002 0.000001 -0.000001 0.000000 0.000002 -0.000001 -0.000003 0.000000 -0.000000 0.000000 0.000000 -0.000001 0.000000 0.000001 0.000000 -0.000003 0.000001 -0.000000 -0.000001 0.000002 -0.000001 0.000000 0.000001 -0.000001 -0.000003 0.000001 -0.000000 0.000000 0.000000 -0.000001 0.000000 0.000001 -0.000001 0.000000 0.000001 -0.000001 0.000000 0.000001 
-0.763382 0.000000 -0.109374 -12.928601 -44.878270 -43.661329 11.591000 14.487673 -107.563629 15.938511 10.329458 -7.495497 1.514454 -10.349393 -0.397059 -0.000002 0.000000 0.000001 -0.000002 0.000000 0.000001 -0.000001 -0.000001 0.000002 -0.000000 0.000001 -0.000000 -0.000000 -0.000001 -0.000000 -0.000001 -0.000001 0.000001 0.000001 -0.000003 0.000000 -0.000000 -0.000003 0.000002 -0.000001 -0.000001 0.000002 -0.000000 -0.000003 0.000002 -0.000000 -0.000001 0.000000 -0.000001 -0.000001 0.000001 -0.000001 -0.000001 0.000001 -0.000001 -0.000001 0.000001 
-0.763382 0.000000 -0.109374 -12.406430 -44.594667 -43.811378 11.653805 14.351884 -108.350228 15.659237 10.282963 -7.914886 1.458213 -10.439127 -0.452156 -0.000001 0.000000 -0.000002 -0.000001 0.000001 -0.000002 0.000000 -0.000003 -0.000003 0.000002 -0.000001 -0.000003 -0.000001 -0.000001 -0.000002 0.000000 -0.000003 -0.000004 -0.000001 -0.000002 -0.000002 0.000000 -0.000002 -0.000002 0.000000 -0.000003 -0.000002 0.000001 -0.000003 -0.000002 0.000001 -0.000003 -0.000003 0.000000 -0.000003 -0.000004 0.000000 -0.000003 -0.000004 0.000000 -0.000003 -0.000005 
-0.763382 0.000000 -0.109374 -11.999980 -44.455823 -44.295051 12.079653 14.267905 -109.092376 15.494926 10.343548 -8.310831 1.364934 -10.540617 -0.537424 0.000001 0.000000 0.000001 0.000001 0.000000 0.000001 0.000000 -0.000001 0.000002 0.000001 0.000001 -0.000003 0.000001 -0.000001 0.000000 0.000000 -0.000001 0.000002 -0.000000 -0.000001 0.000001 -0.000000 -0.000002 0.000001 0.000000 -0.000001 0.000002 0.000001 0.000001 -0.000002 0.000001 -0.000001 0.000001 0.000000 -0.000001 0.000002 0.000000 -0.000001 0.000002 0.000000 -0.000001 0.000001 
-0.763382 0.000000 -0.109374 -11.830414 -44.459689 -45.072203 12.692507 14.136953 -110.076305 15.466717 10.439726 -8.698775 1.272038 -10.624901 -0.616558 0.000001 -0.000001 -0.000000 0.000001 0.000003 0.000001 -0.000000 0.000000 -0.000000 0.000002 0.000002 0.000002 0.000001 0.000000 -0.000000 -0.000000 0.000000 0.000002 0.000001 0.000000 0.000001 -0.000000 -0.000002 0.000002 -0.000000 0.000000 0.000002 0.000000 0.000002 -0.000002 0.000001 0.000000 -0.000001 -0.000000 0.000000 0.000002 -0.000000 0.000000 0.000002 -0.000000 0.000000 0.000000 
-0.763382 0.000000 -0.109374 -12.065093 -44.654312 -46.018140 13.401725 13.821456 -111.819479 15.686211 10.457626 -9.149663 1.219933 -10.689376 -0.645778 -0.000001 0.000001 -0.000000 -0.000001 0.000001 -0.000000 0.000000 0.000002 -0.000001 0.000000 0.000001 0.000000 0.000000 0.000002 -0.000003 0.000000 0.000002 -0.000000 0.000001 0.000001 0.000000 0.000001 -0.000001 -0.000000 0.000000 0.000002 0.000000 0.000000 0.000004 -0.000004 0.000001 0.000001 -0.000002 0.000000 0.000002 -0.000000 0.000000 0.000002 -0.000000 0.000000 0.000002 -0.000002 
-0.763382 0.000000 -0.109374 -12.035306 -45.024409 -46.334050 14.155070 13.596268 -112.636247 15.776578 10.706181 -9.155269 1.156428 -10.693511 -0.605256 -0.000001 -0.000003 -0.000000 -0.000001 -0.000003 -0.000000 -0.000001 0.000000 -0.000000 -0.000002 0.000002 0.000001 -0.000002 0.000000 -0.000003 -0.000001 0.000000 -0.000000 -0.000000 0.000000 -0.000001 -0.000000 -0.000001 0.000001 -0.000001 0.000000 0.000001 -0.000000 0.000002 -0.000001 -0.000001 0.000000 -0.000001 -0.000001 0.000000 -0.000000 -0.000001 0.000000 -0.000000 -0.000001 0.000000 -0.000002 
-0.763382 0.000000 -0.109374 -12.103671 -45.463764 -46.372094 14.554098 13.883439 -112.231134 15.429297 11.572084 -8.838412 1.053749 -10.522058 -0.444142 -0.000000 -0.000005 -0.000001 -0.000000 -0.000005 -0.000001 -0.000001 -0.000001 0.000002 -0.000000 -0.000001 0.000000 -0.000001 -0.000002 -0.000000 -0.000001 -0.000001 0.000000 -0.000000 -0.000001 0.000000 -0.000000 -0.000001 0.000000 -0.000001 -0.000001 0.000002 -0.000001 0.000001 -0.000004 -0.000001 -0.000001 -0.000001 -0.000001 -0.000001 -0.000000 -0.000001 -0.000001 -0.000000 -0.000001 -0.000001 -0.000001 
-0.763382 0.000000 -0.109374 -11.114004 -45.211279 -45.548541 14.120494 14.873536 -110.647029 14.365636 12.817995 -8.350163 1.027604 -10.530734 -0.247955 0.000000 0.000002 0.000001 -0.000001 0.000002 0.000001 0.000000 -0.000001 0.000002 0.000001 0.000001 0.000002 0.000002 -0.000001 0.000002 0.000000 -0.000001 0.000003 -0.000000 -0.000001 0.000003 0.000001 -0.000001 0.000002 0.000000 -0.000001 0.000003 0.000002 0.000001 -0.000002 0.000001 -0.000001 0.000002 0.000000 -0.000001 0.000003 0.000000 -0.000001 0.000003 0.000000 -0.000001 0.000002 
-0.763382 0.000000 -0.109374 -9.474760 -44.432512 -44.018274 13.041513 16.217487 -109.008487 12.911623 14.029768 -7.914802 1.133618 -10.764804 -0.046773 0.000001 -0.000000 0.000002 -0.000001 -0.000000 0.000002 0.000001 -0.000002 0.000002 0.000001 0.000000 0.000001 -0.000001 0.000001 0.000001 0.000001 -0.000002 0.000003 -0.000000 -0.000001 0.000002 -0.000000 -0.000001 0.000002 0.000001 -0.000002 0.000002 0.000003 0.000000 0.000000 -0.000001 0.000000 0.000002 0.000001 -0.000002 0.000003 0.000001 -0.000002 0.000003 0.000001 -0.000002 0.000001 
-0.763382 0.000000 -0.109374 -9.024101 -44.288825 -42.534224 12.301302 17.132582 -109.610514 12.021723 14.638560 -7.886500 1.364889 -10.959587 0.185175 -0.000000 -0.000000 -0.000000 -0.000000 -0.000000 -0.000000 -0.000000 0.000001 0.000002 0.000001 0.000000 0.000001 -0.000002 -0.000000 0.000001 -0.000000 0.000001 0.000003 0.000001 0.000000 0.000003 -0.000000 0.000001 0.000001 -0.000000 0.000001 0.000003 0.000002 0.000002 -0.000001 -0.000000 0.000001 0.000003 -0.000000 0.000001 0.000003 -0.000000 0.000001 0.000003 -0.000000 0.000001 0.000002 
